<svg xmlns="http://www.w3.org/2000/svg" viewBox="0 0 74 76.6"><path d="M44.7 63.5c-5.3 0-9.7-3.9-9.7-10.2 0-6.2 4.5-10.2 9.6-10.2 5.2 0 7.9 3.3 8.6 6.5l-3.5 1.1c-.5-1.9-1.9-3.9-5.2-3.9-2.8 0-5.8 2.1-5.8 6.5 0 4.2 2.8 6.4 5.9 6.4 3.2 0 4.8-2.2 5.3-4l3.4 1.1c-.6 3.1-3.3 6.7-8.6 6.7m-18.8 0c-5 0-7.2-3.3-7.5-6.1l3.4-.9c.2 1.9 1.5 3.7 4.1 3.7 2 0 3.1-1 3.1-2.4 0-1.1-.8-2-2.3-2.3l-2.7-.6c-3-.6-4.9-2.6-4.9-5.6 0-3.5 3-6.1 6.6-6.1 4.6 0 6.3 2.9 6.8 5.1l-3.3 1c-.2-1.1-1-2.8-3.4-2.8-1.8 0-3 1.2-3 2.5 0 1.1.7 1.9 2 2.2l2.6.5c3.4.7 5.3 3 5.3 5.8 0 3-2.4 6-6.8 6m37.7-.4h-7.3V43.6h6.8c3.7 0 5.7 2.2 5.7 5.3 0 2-1.2 3.6-2.7 4.2 1.6.4 3 1.8 3.3 3.8C72.3 51.3 74 45 74 38.3 74 17.1 57.4 0 37 0S0 17.1 0 38.3c0 21.1 16.6 38.3 37 38.3 11.4 0 21.6-5.3 28.3-13.7-.5.1-1.1.2-1.7.2m1.6-13.9c0-1.5-.9-2.4-2.7-2.4h-2.6v4.9h2.6c1.7 0 2.7-1 2.7-2.5m-5.3 10.7h3c1.8 0 2.8-1 2.8-2.5s-1-2.6-2.8-2.6h-3v5.1z"/></svg>