<svg xmlns="http://www.w3.org/2000/svg"><symbol id="icon-collection" viewBox="0 0 22 18"><path d="M22 18H0V8h9v2h4V8h9v10zM2 16h18v-6h-5v2H7v-2H2v6z"/><path d="M4 0h14v2H4z"/><path d="M2 4h18v2H2z"/></symbol><symbol id="icon-download" viewBox="-294 386.5 22.8 20.5"><path d="M-280.2 397v2.1h-4.8V397h-9v10h22.8v-10h-9zm7.4 8.5h-19.6v-6.9h5.8v2.1h8v-2.1h5.8v6.9z"/><g id="Arrows"><path d="M-282.6 394.5l-6.2-3.4.8-1.4 5.4 3 5.4-3 .8 1.4z"/><path d="M-282.6 391.3l-6.2-3.4.7-1.4 5.4 3 5.4-3 .8 1.4z"/></g></symbol><symbol id="icon-drag-handle" viewBox="0 0 22.8 20.5"><title>icon-resize</title><path d="M11.4 20.5l-4-3.4.52-1.4 3.52 3 3.52-3 .52 1.4z"/><path d="M11.33 0l4 3.4-.46 1.4-3.52-3-3.52 3-.47-1.4z"/><path d="M22.8 10.25l-3.4 4.25L18 14l3-3.7-3-3.7 1.4-.6z"/><path d="M0 10.32l3.4-4.25 1.4.48-3 3.7 3 3.7-1.4.55z"/><path d="M1.13 9.69h20.5v1.25H1.13z"/><path d="M10.73 1.13h1.33V19h-1.33z"/></symbol><symbol id="icon-logo" viewBox="0 0 74 76.6"><path d="M44.7 63.5c-5.3 0-9.7-3.9-9.7-10.2 0-6.2 4.5-10.2 9.6-10.2 5.2 0 7.9 3.3 8.6 6.5l-3.5 1.1c-.5-1.9-1.9-3.9-5.2-3.9-2.8 0-5.8 2.1-5.8 6.5 0 4.2 2.8 6.4 5.9 6.4 3.2 0 4.8-2.2 5.3-4l3.4 1.1c-.6 3.1-3.3 6.7-8.6 6.7m-18.8 0c-5 0-7.2-3.3-7.5-6.1l3.4-.9c.2 1.9 1.5 3.7 4.1 3.7 2 0 3.1-1 3.1-2.4 0-1.1-.8-2-2.3-2.3l-2.7-.6c-3-.6-4.9-2.6-4.9-5.6 0-3.5 3-6.1 6.6-6.1 4.6 0 6.3 2.9 6.8 5.1l-3.3 1c-.2-1.1-1-2.8-3.4-2.8-1.8 0-3 1.2-3 2.5 0 1.1.7 1.9 2 2.2l2.6.5c3.4.7 5.3 3 5.3 5.8 0 3-2.4 6-6.8 6m37.7-.4h-7.3V43.6h6.8c3.7 0 5.7 2.2 5.7 5.3 0 2-1.2 3.6-2.7 4.2 1.6.4 3 1.8 3.3 3.8C72.3 51.3 74 45 74 38.3 74 17.1 57.4 0 37 0S0 17.1 0 38.3c0 21.1 16.6 38.3 37 38.3 11.4 0 21.6-5.3 28.3-13.7-.5.1-1.1.2-1.7.2m1.6-13.9c0-1.5-.9-2.4-2.7-2.4h-2.6v4.9h2.6c1.7 0 2.7-1 2.7-2.5m-5.3 10.7h3c1.8 0 2.8-1 2.8-2.5s-1-2.6-2.8-2.6h-3v5.1z"/></symbol><symbol id="icon-remove" viewBox="-294 386.5 22.8 20.5"><path d="M-280.2 397v2.1h-4.8V397h-9v10h22.8v-10h-9zm7.4 8.5h-19.6v-6.9h5.8v2.1h8v-2.1h5.8v6.9z"/><path id="Arrows" d="M-278.5 387.6l-1.1-1.1-3 3-3-3-1.1 1.1 3 3-3 3 1.1 1.1 3-3 3 3 1.1-1.1-3-3z"/></symbol><symbol id="icon-search" viewBox="0 0 18.6 18.6"><path d="M18.6 17.2l-3.4-3.4c1.1-1.4 1.8-3.3 1.8-5.3C17 3.8 13.2 0 8.5 0S0 3.8 0 8.5 3.8 17 8.5 17c2 0 3.8-.7 5.3-1.8l3.4 3.4 1.4-1.4zM2 8.5C2 4.9 4.9 2 8.5 2S15 4.9 15 8.5 12.1 15 8.5 15 2 12.1 2 8.5z"/></symbol></svg>